inDegrees=yes
name=ik_S50_A07_T01
DataType=double
version=3
OpenSimVersion=4.3-2021-08-27-4bc7ad9
endheader
time	pelvis_tilt	pelvis_list	pelvis_rotation	pelvis_tx	pelvis_ty	pelvis_tz	hip_flexion_r	hip_adduction_r	hip_rotation_r	knee_angle_r	knee_angle_r_beta	ankle_angle_r	subtalar_angle_r	mtp_angle_r	hip_flexion_l	hip_adduction_l	hip_rotation_l	knee_angle_l	knee_angle_l_beta	ankle_angle_l	subtalar_angle_l	mtp_angle_l	lumbar_extension	lumbar_bending	lumbar_rotation	arm_flex_r	arm_add_r	arm_rot_r	elbow_flex_r	pro_sup_r	wrist_flex_r	wrist_dev_r	arm_flex_l	arm_add_l	arm_rot_l	elbow_flex_l	pro_sup_l	wrist_flex_l	wrist_dev_l
6.739999999999944	-6.122394022590247	-1.751116344923796	28.50264545864914	0	0.9399999999999999	0	43.2717246016365	-10.25234837272789	-10.25668754997272	55.7742051241773	0.9734435170995867	0	0	0	43.2717246016365	-10.25234837272789	-10.25668754997272	55.7742051241773	0.9734435170995867	0	0	0	-3.889840460580001	-2.707776379346929	5.277858159934058	44.96733894403337	-14.24245820637476	2.215395728757482	83.67487974149981	68.67203141259178	0	0	15.45526438411312	-8.405797014001745	-8.146023434977549	61.0013294883081	124.3301779541898	0	0
6.759999999999944	-6.135470854790853	-1.75973820840941	28.59471550855836	0	0.9399999999999999	0	43.27305120736926	-10.25167460309751	-10.25624734378814	55.77380628641246	0.9734365560674089	0	0	0	43.27305120736926	-10.25167460309751	-10.25624734378814	55.77380628641246	0.9734365560674089	0	0	0	-3.908638051719858	-2.701556241951555	5.208386053055903	45.3331584931677	-13.52765013074111	2.034718903067704	82.10157737181875	69.63552246256128	0	0	15.4640105261841	-8.393985317709278	-8.138508795470004	61.00777622450403	124.3187722366238	0	0
6.779999999999943	-6.133418548169635	-1.760073193852641	28.6416245715441	0	0.9399999999999999	0	43.27433578645261	-10.25102072838026	-10.25582033419991	55.7734214376795	0.9734298391898966	0	0	0	43.27433578645261	-10.25102072838026	-10.25582033419991	55.7734214376795	0.9734298391898966	0	0	0	-3.909110843776371	-2.697989616397185	5.171619451512374	45.4927585008431	-13.17503602298198	2.003517634274652	81.55972284870737	70.06542873777771	0	0	15.43956165188937	-8.391950438047557	-8.149437844122019	61.02958318420451	124.3207913773812	0	0
6.799999999999943	-6.137105432546539	-1.762919620293737	28.74026165669004	0	0.9399999999999999	0	43.27572479928948	-10.25031434280114	-10.25535873810124	55.77300561422617	0.9734225817015291	0	0	0	43.27572479928948	-10.25031434280114	-10.25535873810124	55.77300561422617	0.9734225817015291	0	0	0	-3.917499117350927	-2.688947825867566	5.078853627136945	45.73496647921838	-12.49276924885208	2.212919911771208	80.2214737919805	70.84933712281052	0	0	15.44643775090876	-8.377456752163436	-8.171458513682071	61.01923156738791	124.3262841762546	0	0
6.819999999999943	-6.134041980315811	-1.767024410429041	28.86831545252021	0	0.9399999999999999	0	43.27737606060515	-10.24948082889331	-10.2548124776424	55.77250875584181	0.9734139098868059	0	0	0	43.27737606060515	-10.24948082889331	-10.2548124776424	55.77250875584181	0.9734139098868059	0	0	0	-3.921665099350274	-2.681256756108711	4.963908393747808	45.79718189662748	-12.05655617477056	2.302827675669062	78.51271924360184	71.37755929118586	0	0	15.44987773530551	-8.36724228045351	-8.202057469765109	61.00396130123001	124.3239770173335	0	0
6.839999999999942	-6.132203720534234	-1.774891611424694	28.89899309350265	0	0.9399999999999999	0	43.27813938189757	-10.24909520955302	-10.2545597618479	55.77227952983178	0.9734099091381997	0	0	0	43.27813938189757	-10.24909520955302	-10.2545597618479	55.77227952983178	0.9734099091381997	0	0	0	-3.925525643725161	-2.684775076774189	4.925896790638501	45.94948173991001	-11.83494146699221	2.378852118485593	78.03478963738534	71.56614085095732	0	0	15.45626505693709	-8.388929247463544	-8.240769111044205	60.9948567661153	124.3235282220233	0	0
6.859999999999942	-6.132368903498436	-1.778063583119765	28.97591865891297	0	0.9399999999999999	0	43.2791514585743	-10.24858586396194	-10.25422546198681	55.77197482464108	0.973404591029374	0	0	0	43.2791514585743	-10.24858586396194	-10.25422546198681	55.77197482464108	0.973404591029374	0	0	0	-3.929695933466466	-2.680928593100104	4.863947226036896	46.09589872021785	-11.49090364205155	2.423586852880837	77.12744506031018	72.19321579727459	0	0	15.45234563771369	-8.405802130064211	-8.261302130082891	60.99928642849823	124.3294067319283	0	0
6.879999999999941	-6.132942186735234	-1.776201249046257	29.0303221536131	0	0.9399999999999999	0	43.28011076413708	-10.24810340728941	-10.25390866178817	55.77168615759395	0.9733995528389596	0	0	0	43.28011076413708	-10.24810340728941	-10.25390866178817	55.77168615759395	0.9733995528389596	0	0	0	-3.931877533656652	-2.672375552840301	4.802594108070603	46.22783796677553	-11.18890792828437	2.544396434175695	76.3749647528373	72.69521765471042	0	0	15.42497568890112	-8.409859520003542	-8.282618640485193	61.02446062871603	124.3185261029856	0	0
6.899999999999941	-6.130898631007235	-1.776935927898018	29.09628204044651	0	0.9399999999999999	0	43.2814102594585	-10.24745046546124	-10.25347965719296	55.77129533418396	0.9733927316836614	0	0	0	43.2814102594585	-10.24745046546124	-10.25347965719296	55.77129533418396	0.9733927316836614	0	0	0	-3.932760269390494	-2.668329659109003	4.75908589447461	46.32749921106774	-10.97667200215987	2.658474234297639	75.73290723893362	73.14785450813589	0	0	15.4119148210934	-8.410387191784606	-8.218441623183535	61.03409568882246	124.3027912555941	0	0
6.91999999999994	-6.135072204158886	-1.773582591339818	29.12294591750465	0	0.9399999999999999	0	43.28205889368769	-10.24712534974806	-10.25326582162856	55.77110001935603	0.973389322796836	0	0	0	43.28205889368769	-10.24712534974806	-10.25326582162856	55.77110001935603	0.973389322796836	0	0	0	-3.936300439731763	-2.659258439645831	4.722683119977429	46.43627016149392	-10.88357758902548	2.848128463585456	75.31492547664146	73.25611812833614	0	0	15.41282833970968	-8.403368687410117	-8.232310014418427	61.03506945414907	124.2981567075021	0	0
6.93999999999994	-6.124405063553795	-1.784162748056455	29.18171277592709	0	0.9399999999999999	0	43.28322563736366	-10.24653957475997	-10.25288068055739	55.77074959679769	0.9733832067694197	0	0	0	43.28322563736366	-10.24653957475997	-10.25288068055739	55.77074959679769	0.9733832067694197	0	0	0	-3.933661275270735	-2.669976904623072	4.698424922652902	46.52643498160668	-10.75278660839465	2.996184117338721	74.76001551204011	73.68540327721215	0	0	15.42763259396819	-8.432752526095694	-8.165559439857743	61.02741645952968	124.282549424503	0	0
6.95999999999994	-6.122158786925793	-1.78601629957031	29.18324116031211	0	0.9399999999999999	0	43.28464261105692	-10.24595911752231	-10.25246158686092	55.77030829838086	0.9733755046590622	0	0	0	43.28464261105692	-10.24595911752231	-10.25246158686092	55.77030829838086	0.9733755046590622	0	0	0	-3.933693575328035	-2.670927518854951	4.703557419785789	46.51467949689832	-10.74900937736599	2.993632092365483	74.66162190693967	73.8695711953702	0	0	15.42540306367788	-8.421334545969618	-8.164467785184037	61.01273709443176	124.3176325753378	0	0
